<?xml version="1.0" standalone="no"?>
<!DOCTYPE svg PUBLIC "-//W3C//DTD SVG 20010904//EN"
 "http://www.w3.org/TR/2001/REC-SVG-20010904/DTD/svg10.dtd">
<svg version="1.0" xmlns="http://www.w3.org/2000/svg"
 width="500.000000pt" height="500.000000pt" viewBox="0 0 500.000000 500.000000"
 preserveAspectRatio="xMidYMid meet">
<metadata>
Created by potrace 1.14, written by Peter Selinger 2001-2017
</metadata>
<g transform="translate(0.000000,500.000000) scale(0.100000,-0.100000)"
fill="#000000" stroke="none">
<path d="M1298 4725 c-1 -2 -23 -6 -47 -10 -176 -26 -330 -166 -376 -340 -57
-217 43 -442 239 -540 90 -44 140 -55 240 -50 292 13 497 285 431 573 -32 135
-129 258 -251 316 -62 30 -72 33 -144 42 -25 3 -55 7 -67 9 -12 2 -23 2 -25 0z"/>
<path d="M956 2348 c0 -656 4 -1213 8 -1238 25 -155 78 -296 154 -406 165
-243 444 -405 717 -418 l75 -4 0 1207 c-1 1138 -2 1211 -20 1291 -30 139 -66
223 -141 335 -39 59 -139 169 -199 219 -121 101 -341 188 -510 200 l-85 7 1
-1193z"/>
<path d="M2938 3535 c-2 -2 -23 -5 -48 -8 -64 -8 -96 -15 -170 -38 -66 -21
-202 -87 -208 -101 -2 -5 -10 -8 -18 -8 -8 0 -14 -4 -14 -9 0 -5 -9 -12 -19
-16 -24 -7 -156 -136 -196 -190 -17 -22 -32 -42 -35 -45 -26 -25 -100 -187
-128 -280 l-26 -85 -3 -1237 -4 -1237 73 5 c230 15 491 142 636 310 59 69 57
66 98 130 73 114 128 269 140 394 4 42 8 2261 5 2392 -1 24 -4 27 -41 26 -21
0 -40 -2 -42 -3z"/>
<path d="M3184 2313 l2 -1228 22 -80 c12 -44 26 -89 31 -100 5 -11 24 -53 42
-93 17 -39 36 -72 40 -72 5 0 9 -6 9 -13 0 -7 9 -23 20 -35 11 -12 20 -24 20
-28 0 -13 95 -109 169 -171 96 -81 274 -168 381 -187 14 -2 36 -7 50 -10 14
-3 57 -8 95 -10 l71 -5 -2 1217 c-1 1094 -3 1224 -17 1282 -55 217 -134 358
-274 490 -86 81 -92 86 -178 136 -128 75 -256 116 -406 129 l-77 7 2 -1229z"/>
</g>
</svg>
