<?xml version="1.0" standalone="no"?>
<!DOCTYPE svg PUBLIC "-//W3C//DTD SVG 20010904//EN"
 "http://www.w3.org/TR/2001/REC-SVG-20010904/DTD/svg10.dtd">
<svg version="1.0" xmlns="http://www.w3.org/2000/svg"
 width="446.000000pt" height="446.000000pt" viewBox="0 0 446.000000 446.000000"
 preserveAspectRatio="xMidYMid meet">
<metadata>
Created by potrace 1.14, written by Peter Selinger 2001-2017
</metadata>
<g transform="translate(0.000000,446.000000) scale(0.100000,-0.100000)"
fill="#000000" stroke="none">
<path d="M953 4440 c-154 -31 -298 -168 -344 -329 -74 -257 76 -517 338 -585
318 -83 627 200 574 526 -31 191 -182 354 -362 388 -60 12 -146 11 -206 0z"/>
<path d="M690 2064 c0 -1153 1 -1213 19 -1299 57 -266 228 -497 467 -631 127
-71 274 -114 392 -114 l72 0 0 1189 c0 1143 -1 1193 -20 1288 -30 150 -81 268
-163 378 -170 229 -407 361 -704 391 l-63 7 0 -1209z"/>
<path d="M2590 3253 c-294 -52 -555 -245 -688 -509 -42 -84 -80 -205 -92 -294
-5 -45 -10 -550 -10 -1252 l0 -1178 73 0 c78 0 193 26 291 65 236 95 448 315
530 551 58 165 56 118 56 1429 l0 1205 -37 -1 c-21 0 -76 -8 -123 -16z"/>
<path d="M2913 2048 c3 -1217 3 -1223 24 -1303 48 -177 125 -317 242 -438 168
-176 410 -287 621 -287 l71 0 -3 1202 c-4 1301 -2 1253 -58 1412 -93 270 -332
503 -601 585 -70 22 -225 51 -271 51 l-29 0 4 -1222z"/>
</g>
</svg>
